<svg width="14" height="14" viewBox="0 0 14 14" fill="none" xmlns="http://www.w3.org/2000/svg">
<path d="M3.84407 6.91747C3.9177 7.05397 4.05773 7.13907 4.21003 7.13907H6.58154V11.8217C6.58154 12.0581 6.76899 12.25 6.99994 12.25C7.2309 12.25 7.41835 12.0581 7.41835 11.8217V7.13907H9.78986C9.94272 7.13907 10.0827 7.05397 10.1558 6.91747C10.23 6.78098 10.225 6.61421 10.1441 6.48228L7.35419 1.94989C7.27721 1.82539 7.14388 1.75 6.99994 1.75C6.85601 1.75 6.72268 1.82539 6.6457 1.94989L3.85578 6.48228C3.81338 6.55196 3.79163 6.63134 3.79163 6.71073C3.79163 6.78155 3.80948 6.85294 3.84407 6.91747Z" fill="#2972FF"/>
</svg>
