<svg width="24" height="24" viewBox="0 0 24 24" fill="none" xmlns="http://www.w3.org/2000/svg">
<path fill-rule="evenodd" clip-rule="evenodd" d="M11.9999 2C17.5199 2 21.9999 6.49 21.9999 12C21.9999 17.52 17.5199 22 11.9999 22C6.48988 22 1.99988 17.52 1.99988 12C1.99988 6.49 6.48988 2 11.9999 2ZM7.99988 13.98C8.29988 14.27 8.76988 14.27 9.05988 13.97L11.9999 11.02L14.9399 13.97C15.2299 14.27 15.7099 14.27 15.9999 13.98C16.2999 13.68 16.2999 13.21 15.9999 12.92L12.5299 9.43C12.3899 9.29 12.1999 9.21 11.9999 9.21C11.7999 9.21 11.6099 9.29 11.4699 9.43L7.99988 12.92C7.84988 13.06 7.77988 13.25 7.77988 13.44C7.77988 13.64 7.84988 13.83 7.99988 13.98Z" fill="#2972FF"/>
</svg>
