<svg width="32" height="32" viewBox="0 0 32 32" fill="none" xmlns="http://www.w3.org/2000/svg">
<path fill-rule="evenodd" clip-rule="evenodd" d="M23.6918 11.1757H29.3333C29.3333 6.64612 26.6192 4 22.0207 4H9.97922C5.3807 4 2.66663 6.64612 2.66663 11.118V20.882C2.66663 25.3539 5.3807 28 9.97922 28H22.0207C26.6192 28 29.3333 25.3539 29.3333 20.882V20.4661H23.6918C21.0736 20.4661 18.9511 18.3967 18.9511 15.844C18.9511 13.2913 21.0736 11.222 23.6918 11.222V11.1757ZM23.6918 13.1632H28.3377C28.8876 13.1632 29.3333 13.5978 29.3333 14.1338V17.5079C29.3269 18.0414 28.8849 18.4723 28.3377 18.4786H23.7985C22.473 18.496 21.3139 17.6112 21.0133 16.3524C20.8627 15.5711 21.0741 14.7648 21.5907 14.1496C22.1073 13.5345 22.8764 13.1734 23.6918 13.1632ZM23.8933 16.7106H24.3318C24.8947 16.7106 25.3511 16.2657 25.3511 15.7169C25.3511 15.1681 24.8947 14.7232 24.3318 14.7232H23.8933C23.6241 14.7201 23.3648 14.8222 23.1733 15.0067C22.9818 15.1912 22.874 15.4428 22.874 15.7053C22.874 16.2561 23.3285 16.7043 23.8933 16.7106ZM8.98366 11.1757H16.5096C17.0725 11.1757 17.5288 10.7308 17.5288 10.182C17.5288 9.63316 17.0725 9.18825 16.5096 9.18825H8.98366C8.42534 9.18821 7.9709 9.62613 7.9644 10.1704C7.96437 10.7212 8.41883 11.1694 8.98366 11.1757Z" fill="#2972FF"/>
</svg>
