<svg width="30" height="30" viewBox="0 0 30 30" fill="none" xmlns="http://www.w3.org/2000/svg">
<path d="M6.90484 8.75012C11.768 7.17994 17.4656 6.81978 20.0001 6.87512C22.5346 6.93046 23.6041 7.83299 24.3751 9.37512C25.6251 11.8751 25.3614 18.1102 23.1251 20.109C20.8901 22.1077 11.6628 22.2977 8.58781 20.109C5.33906 17.7952 7.03637 11.4901 6.93012 7.17887C6.99387 4.76637 4.37512 4.37512 4.37512 4.37512" stroke="#BDBDBD" stroke-width="1.5" stroke-linecap="round" stroke-linejoin="round"/>
<path d="M16.2501 13.1251H19.7164" stroke="#BDBDBD" stroke-width="1.5" stroke-linecap="round" stroke-linejoin="round"/>
<path fill-rule="evenodd" clip-rule="evenodd" d="M9.08005 25.1594C9.45505 25.1594 9.76005 25.4644 9.76005 25.8394C9.76005 26.2156 9.45505 26.5206 9.08005 26.5206C8.7038 26.5206 8.3988 26.2156 8.3988 25.8394C8.3988 25.4644 8.7038 25.1594 9.08005 25.1594Z" fill="#BDBDBD" stroke="#BDBDBD" stroke-width="1.5" stroke-linecap="round" stroke-linejoin="round"/>
<path fill-rule="evenodd" clip-rule="evenodd" d="M21.9945 25.1594C22.3707 25.1594 22.6757 25.4644 22.6757 25.8394C22.6757 26.2156 22.3707 26.5206 21.9945 26.5206C21.6195 26.5206 21.3145 26.2156 21.3145 25.8394C21.3145 25.4644 21.6195 25.1594 21.9945 25.1594Z" fill="#BDBDBD" stroke="#BDBDBD" stroke-width="1.5" stroke-linecap="round" stroke-linejoin="round"/>
</svg>
