<svg width="30" height="30" viewBox="0 0 30 30" fill="none" xmlns="http://www.w3.org/2000/svg">
<path d="M8.64636 18.5674L12.3876 13.7061L16.6551 17.0561L20.3164 12.3311" stroke="#BDBDBD" stroke-width="1.5" stroke-linecap="round" stroke-linejoin="round"/>
<path fill-rule="evenodd" clip-rule="evenodd" d="M24.5839 2.9375C25.9114 2.9375 26.9864 4.0125 26.9864 5.34C26.9864 6.66625 25.9114 7.7425 24.5839 7.7425C23.2564 7.7425 22.1814 6.66625 22.1814 5.34C22.1814 4.0125 23.2564 2.9375 24.5839 2.9375Z" stroke="#BDBDBD" stroke-width="1.5" stroke-linecap="round" stroke-linejoin="round"/>
<path d="M25.9444 11.5863C26.1106 12.705 26.1869 13.965 26.1869 15.3788C26.1869 24.0513 23.2969 26.9413 14.6244 26.9413C5.95314 26.9413 3.06189 24.0513 3.06189 15.3788C3.06189 6.7075 5.95314 3.81625 14.6244 3.81625C16.0119 3.81625 17.2506 3.89 18.3531 4.05" stroke="#BDBDBD" stroke-width="1.5" stroke-linecap="round" stroke-linejoin="round"/>
</svg>
