<svg width="32" height="32" viewBox="0 0 32 32" fill="none" xmlns="http://www.w3.org/2000/svg">
<path fill-rule="evenodd" clip-rule="evenodd" d="M10.4133 2.66666H21.588C25.7067 2.66666 28 5.03999 28 9.10666V22.88C28 27.0133 25.7067 29.3333 21.588 29.3333H10.4133C6.36 29.3333 4 27.0133 4 22.88V9.10666C4 5.03999 6.36 2.66666 10.4133 2.66666ZM10.7733 8.87999V8.86666H14.7587C15.3333 8.86666 15.8 9.33332 15.8 9.90532C15.8 10.4933 15.3333 10.96 14.7587 10.96H10.7733C10.1987 10.96 9.73333 10.4933 9.73333 9.91999C9.73333 9.34666 10.1987 8.87999 10.7733 8.87999ZM10.7733 16.9867H21.2267C21.8 16.9867 22.2667 16.52 22.2667 15.9467C22.2667 15.3733 21.8 14.9053 21.2267 14.9053H10.7733C10.1987 14.9053 9.73333 15.3733 9.73333 15.9467C9.73333 16.52 10.1987 16.9867 10.7733 16.9867ZM10.7733 23.08H21.2267C21.7587 23.0267 22.16 22.572 22.16 22.04C22.16 21.4933 21.7587 21.04 21.2267 20.9867H10.7733C10.3733 20.9467 9.98667 21.1333 9.77333 21.48C9.56 21.8133 9.56 22.2533 9.77333 22.6C9.98667 22.9333 10.3733 23.1333 10.7733 23.08Z" fill="#2972FF"/>
</svg>
