<svg width="14" height="14" viewBox="0 0 14 14" fill="none" xmlns="http://www.w3.org/2000/svg">
<path d="M10.1559 7.08253C10.0823 6.94603 9.94227 6.86093 9.78997 6.86093L7.41846 6.86093L7.41846 2.17834C7.41846 1.9419 7.23101 1.75 7.00005 1.75C6.7691 1.75 6.58165 1.9419 6.58165 2.17834L6.58165 6.86093L4.21014 6.86093C4.05728 6.86093 3.91726 6.94603 3.84418 7.08253C3.76998 7.21902 3.775 7.38579 3.85589 7.51772L6.64581 12.0501C6.72279 12.1746 6.85612 12.25 7.00006 12.25C7.14399 12.25 7.27732 12.1746 7.3543 12.0501L10.1442 7.51772C10.1866 7.44804 10.2084 7.36866 10.2084 7.28927C10.2084 7.21845 10.1905 7.14706 10.1559 7.08253" fill="#F94444"/>
</svg>
